<mxfile host="65bd71144e">
    <diagram id="9l8W26tV49OjGQDexKN5" name="Page-1">
        <mxGraphModel dx="643" dy="408" grid="1" gridSize="10" guides="1" tooltips="1" connect="1" arrows="1" fold="1" page="1" pageScale="1" pageWidth="827" pageHeight="1169" math="0" shadow="0">
            <root>
                <mxCell id="0"/>
                <mxCell id="1" parent="0"/>
                <mxCell id="33" style="edgeStyle=orthogonalEdgeStyle;html=1;exitX=0.7;exitY=1;exitDx=0;exitDy=0;exitPerimeter=0;rounded=0;endArrow=none;endFill=0;" parent="1" source="2" target="31" edge="1">
                    <mxGeometry relative="1" as="geometry">
                        <Array as="points">
                            <mxPoint x="349" y="450"/>
                        </Array>
                    </mxGeometry>
                </mxCell>
                <mxCell id="2" value="" style="verticalLabelPosition=bottom;shadow=0;dashed=0;align=center;html=1;verticalAlign=top;shape=mxgraph.electrical.transistors.npn_transistor_1;direction=east;flipV=0;flipH=1;" parent="1" vertex="1">
                    <mxGeometry x="320" y="275" width="95" height="100" as="geometry"/>
                </mxCell>
                <mxCell id="3" style="edgeStyle=orthogonalEdgeStyle;html=1;exitX=1;exitY=0.12;exitDx=0;exitDy=0;entryX=1;entryY=0.5;entryDx=0;entryDy=0;rounded=0;endArrow=none;endFill=0;" parent="1" source="4" target="15" edge="1">
                    <mxGeometry relative="1" as="geometry"/>
                </mxCell>
                <mxCell id="4" value="" style="html=1;shape=mxgraph.electrical.electro-mechanical.twoWaySwitch;aspect=fixed;elSwitchState=2;flipV=1;" parent="1" vertex="1">
                    <mxGeometry x="580" y="275" width="75" height="26" as="geometry"/>
                </mxCell>
                <mxCell id="5" style="edgeStyle=orthogonalEdgeStyle;html=1;exitX=1;exitY=0.5;exitDx=0;exitDy=0;exitPerimeter=0;entryX=0;entryY=0.5;entryDx=0;entryDy=0;rounded=0;endArrow=none;endFill=0;" parent="1" source="6" target="4" edge="1">
                    <mxGeometry relative="1" as="geometry"/>
                </mxCell>
                <mxCell id="6" value="" style="pointerEvents=1;verticalLabelPosition=bottom;shadow=0;dashed=0;align=center;html=1;verticalAlign=top;shape=mxgraph.electrical.resistors.resistor_2;" parent="1" vertex="1">
                    <mxGeometry x="450" y="315" width="100" height="20" as="geometry"/>
                </mxCell>
                <mxCell id="7" style="edgeStyle=orthogonalEdgeStyle;html=1;exitX=0;exitY=0.5;exitDx=0;exitDy=0;exitPerimeter=0;entryX=0;entryY=0.5;entryDx=0;entryDy=0;entryPerimeter=0;rounded=0;endArrow=none;endFill=0;" parent="1" source="2" target="6" edge="1">
                    <mxGeometry relative="1" as="geometry"/>
                </mxCell>
                <mxCell id="30" style="edgeStyle=orthogonalEdgeStyle;html=1;exitX=0;exitY=0.57;exitDx=0;exitDy=0;exitPerimeter=0;rounded=0;endArrow=none;endFill=0;" parent="1" edge="1">
                    <mxGeometry relative="1" as="geometry">
                        <mxPoint x="350" y="235" as="targetPoint"/>
                        <mxPoint x="380" y="519.9" as="sourcePoint"/>
                        <Array as="points">
                            <mxPoint x="290" y="520"/>
                            <mxPoint x="290" y="235"/>
                        </Array>
                    </mxGeometry>
                </mxCell>
                <mxCell id="8" value="" style="verticalLabelPosition=bottom;shadow=0;dashed=0;align=center;html=1;verticalAlign=top;shape=mxgraph.electrical.opto_electronics.led_2;pointerEvents=1;" parent="1" vertex="1">
                    <mxGeometry x="380" y="480" width="100" height="70" as="geometry"/>
                </mxCell>
                <mxCell id="10" value="" style="pointerEvents=1;verticalLabelPosition=bottom;shadow=0;dashed=0;align=center;html=1;verticalAlign=top;shape=mxgraph.electrical.resistors.resistor_2;" parent="1" vertex="1">
                    <mxGeometry x="520" y="509" width="100" height="20" as="geometry"/>
                </mxCell>
                <mxCell id="11" style="edgeStyle=orthogonalEdgeStyle;html=1;exitX=1;exitY=0.57;exitDx=0;exitDy=0;exitPerimeter=0;entryX=0;entryY=0.5;entryDx=0;entryDy=0;entryPerimeter=0;rounded=0;endArrow=none;endFill=0;" parent="1" source="8" target="10" edge="1">
                    <mxGeometry relative="1" as="geometry"/>
                </mxCell>
                <mxCell id="12" style="edgeStyle=orthogonalEdgeStyle;html=1;exitDx=0;exitDy=0;entryX=1;entryY=0.5;entryDx=0;entryDy=0;entryPerimeter=0;rounded=0;endArrow=none;endFill=0;" parent="1" source="31" target="10" edge="1">
                    <mxGeometry relative="1" as="geometry">
                        <Array as="points">
                            <mxPoint x="660" y="450"/>
                            <mxPoint x="660" y="519"/>
                        </Array>
                    </mxGeometry>
                </mxCell>
                <mxCell id="13" value="" style="shape=waypoint;sketch=0;size=6;pointerEvents=1;points=[];fillColor=none;resizable=0;rotatable=0;perimeter=centerPerimeter;snapToPoint=1;" parent="1" vertex="1">
                    <mxGeometry x="650" y="508" width="20" height="20" as="geometry"/>
                </mxCell>
                <mxCell id="14" style="edgeStyle=orthogonalEdgeStyle;html=1;exitX=0;exitY=0.5;exitDx=0;exitDy=0;rounded=0;endArrow=none;endFill=0;entryX=0.049;entryY=0.477;entryDx=0;entryDy=0;entryPerimeter=0;" parent="1" target="13" edge="1">
                    <mxGeometry relative="1" as="geometry">
                        <Array as="points">
                            <mxPoint x="781" y="518"/>
                        </Array>
                        <mxPoint x="781.0000000000002" y="448" as="sourcePoint"/>
                        <mxPoint x="666.0000000000002" y="520" as="targetPoint"/>
                    </mxGeometry>
                </mxCell>
                <mxCell id="15" value="" style="pointerEvents=1;verticalLabelPosition=bottom;shadow=0;dashed=0;align=center;html=1;verticalAlign=top;shape=mxgraph.electrical.miscellaneous.batteryStack;rotation=-90;" parent="1" vertex="1">
                    <mxGeometry x="730" y="365" width="100" height="60" as="geometry"/>
                </mxCell>
                <mxCell id="16" value="" style="shape=waypoint;sketch=0;size=6;pointerEvents=1;points=[];fillColor=none;resizable=0;rotatable=0;perimeter=centerPerimeter;snapToPoint=1;" parent="1" vertex="1">
                    <mxGeometry x="770" y="267" width="20" height="20" as="geometry"/>
                </mxCell>
                <mxCell id="17" style="edgeStyle=orthogonalEdgeStyle;html=1;exitX=0.7;exitY=0;exitDx=0;exitDy=0;exitPerimeter=0;entryX=0.824;entryY=0.656;entryDx=0;entryDy=0;entryPerimeter=0;rounded=0;endArrow=none;endFill=0;" parent="1" source="2" target="16" edge="1">
                    <mxGeometry relative="1" as="geometry">
                        <Array as="points">
                            <mxPoint x="349" y="235"/>
                            <mxPoint x="780" y="235"/>
                        </Array>
                    </mxGeometry>
                </mxCell>
                <mxCell id="18" value="220&amp;nbsp;Ω" style="text;html=1;align=center;verticalAlign=middle;resizable=0;points=[];autosize=1;strokeColor=none;fillColor=none;" parent="1" vertex="1">
                    <mxGeometry x="540" y="525" width="60" height="30" as="geometry"/>
                </mxCell>
                <mxCell id="19" value="220 Ω" style="text;html=1;align=center;verticalAlign=middle;resizable=0;points=[];autosize=1;strokeColor=none;fillColor=none;" parent="1" vertex="1">
                    <mxGeometry x="470" y="335" width="60" height="30" as="geometry"/>
                </mxCell>
                <mxCell id="20" value="5 V" style="text;html=1;align=center;verticalAlign=middle;resizable=0;points=[];autosize=1;strokeColor=none;fillColor=none;" parent="1" vertex="1">
                    <mxGeometry x="820" y="380" width="40" height="30" as="geometry"/>
                </mxCell>
                <mxCell id="21" value="Input A" style="text;html=1;align=center;verticalAlign=middle;resizable=0;points=[];autosize=1;strokeColor=none;fillColor=none;" parent="1" vertex="1">
                    <mxGeometry x="587.5" y="301" width="60" height="30" as="geometry"/>
                </mxCell>
                <mxCell id="22" value="Output" style="text;html=1;align=center;verticalAlign=middle;resizable=0;points=[];autosize=1;strokeColor=none;fillColor=none;" parent="1" vertex="1">
                    <mxGeometry x="340" y="555" width="60" height="30" as="geometry"/>
                </mxCell>
                <mxCell id="23" value="&lt;b&gt;Daki A,B&lt;/b&gt;&lt;div&gt;&lt;font color=&quot;#000000&quot;&gt;&lt;b&gt;April 2025&lt;br&gt;&lt;/b&gt;&lt;/font&gt;&lt;div&gt;&lt;b&gt;TEJ3M&lt;/b&gt;&lt;/div&gt;&lt;div&gt;&lt;b&gt;Unit #4-07&lt;/b&gt;&lt;/div&gt;&lt;/div&gt;" style="text;html=1;align=left;verticalAlign=middle;resizable=0;points=[];autosize=1;strokeColor=none;fillColor=none;" parent="1" vertex="1">
                    <mxGeometry x="130" y="174" width="80" height="70" as="geometry"/>
                </mxCell>
                <mxCell id="24" value="&lt;b&gt;NOT Gate with Transistor&lt;/b&gt;" style="text;html=1;align=left;verticalAlign=middle;resizable=0;points=[];autosize=1;strokeColor=none;fillColor=none;" parent="1" vertex="1">
                    <mxGeometry x="130" y="237" width="170" height="30" as="geometry"/>
                </mxCell>
                <mxCell id="25" value="&lt;b&gt;A | Output&lt;/b&gt;&lt;div&gt;&lt;b&gt;-------------&lt;/b&gt;&lt;/div&gt;&lt;div&gt;&lt;b&gt;0 | 1&lt;/b&gt;&lt;/div&gt;&lt;div&gt;&lt;b&gt;1 | 0&lt;/b&gt;&lt;/div&gt;" style="text;html=1;align=left;verticalAlign=middle;resizable=0;points=[];autosize=1;strokeColor=none;fillColor=none;" parent="1" vertex="1">
                    <mxGeometry x="130" y="271" width="80" height="70" as="geometry"/>
                </mxCell>
                <mxCell id="32" value="" style="edgeStyle=orthogonalEdgeStyle;html=1;exitX=1;exitY=0.88;exitDx=0;exitDy=0;entryDx=0;entryDy=0;entryPerimeter=0;rounded=0;endArrow=none;endFill=0;" parent="1" edge="1">
                    <mxGeometry relative="1" as="geometry">
                        <mxPoint x="650.0000000000002" y="297.88" as="sourcePoint"/>
                        <mxPoint x="660.0000000000002" y="450" as="targetPoint"/>
                    </mxGeometry>
                </mxCell>
                <mxCell id="31" value="" style="shape=waypoint;sketch=0;size=6;pointerEvents=1;points=[];fillColor=none;resizable=0;rotatable=0;perimeter=centerPerimeter;snapToPoint=1;" parent="1" vertex="1">
                    <mxGeometry x="650" y="440" width="20" height="20" as="geometry"/>
                </mxCell>
                <mxCell id="34" value="" style="shape=waypoint;sketch=0;size=6;pointerEvents=1;points=[];fillColor=none;resizable=0;rotatable=0;perimeter=centerPerimeter;snapToPoint=1;" parent="1" vertex="1">
                    <mxGeometry x="339" y="226" width="20" height="20" as="geometry"/>
                </mxCell>
            </root>
        </mxGraphModel>
    </diagram>
</mxfile>